<svg xmlns="http://www.w3.org/2000/svg" version="1.1" xmlns:xlink="http://www.w3.org/1999/xlink" xmlns:svgjs="http://svgjs.com/svgjs" width="1440" height="560" preserveAspectRatio="none" viewBox="0 0 1440 560"><g mask="url(&quot;#SvgjsMask1001&quot;)" fill="none"><rect width="1440" height="560" x="0" y="0" fill="rgba(0, 125, 255, 1)"></rect><path d="M0,415.265C79.012,427.794,158.469,394.521,226.656,352.684C295.787,310.268,347.077,247.217,388.011,177.199C432.538,101.035,498.023,16.528,472.564,-67.944C446.741,-153.623,336.513,-175.689,265.315,-229.897C210.647,-271.52,163.212,-317.135,102.648,-349.586C27.729,-389.729,-45.966,-456.438,-129.643,-441.523C-213.678,-426.544,-274.506,-348.742,-317.098,-274.767C-355.618,-207.866,-347.925,-127.888,-354.51,-50.971C-360.688,21.184,-386.958,97.157,-354.484,161.887C-322.272,226.096,-243.173,245.675,-184.731,287.448C-122.553,331.891,-75.485,403.295,0,415.265" fill="#0064cc"></path><path d="M1440 1060.6109999999999C1545.331 1066.041 1656.402 1091.187 1749.411 1041.453 1844.836 990.427 1901.112 889.5360000000001 1944.951 790.6030000000001 1988.4270000000001 692.489 2013.892 585.905 1998.3200000000002 479.726 1982.7730000000001 373.717 1929.372 277.712 1858.01 197.79199999999997 1787.371 118.68200000000002 1697.838 58.329999999999984 1595.902 29.048000000000002 1494.34-0.1269999999999527 1389.183 13.708999999999946 1285.343 33.287000000000035 1171.451 54.75999999999999 1036.4560000000001 57.127999999999986 964.6089999999999 148.07100000000003 892.843 238.911 929.0219999999999 370.549 927.447 486.306 926.076 587.041 916.566 688.33 955.9970000000001 781.037 996.0550000000001 875.2180000000001 1061.811 959.38 1150.435 1010.572 1237.007 1060.579 1340.156 1055.463 1440 1060.6109999999999" fill="#3397ff"></path></g><defs><mask id="SvgjsMask1001"><rect width="1440" height="560" fill="#ffffff"></rect></mask></defs></svg>