<svg xmlns="http://www.w3.org/2000/svg" version="1.1" xmlns:xlink="http://www.w3.org/1999/xlink" xmlns:svgjs="http://svgjs.com/svgjs" width="1440" height="560" preserveAspectRatio="none" viewBox="0 0 1440 560"><g mask="url(&quot;#SvgjsMask1044&quot;)" fill="none"><path d="M 0,65 C 57.6,101.4 172.8,242.2 288,247 C 403.2,251.8 460.8,94.8 576,89 C 691.2,83.2 748.8,215 864,218 C 979.2,221 1036.8,109.2 1152,104 C 1267.2,98.8 1382.4,174.4 1440,192L1440 560L0 560z" fill="#184a7e"></path><path d="M 0,290 C 48,341.8 144,530.6 240,549 C 336,567.4 384,391.2 480,382 C 576,372.8 624,497.4 720,503 C 816,508.6 864,412.4 960,410 C 1056,407.6 1104,490.4 1200,491 C 1296,491.6 1392,428.6 1440,413L1440 560L0 560z" fill="#2264ab"></path></g><defs><mask id="SvgjsMask1044"><rect width="1440" height="560" fill="#ffffff"></rect></mask></defs></svg>